<svg width="36" height="36" viewBox="0 0 36 36" fill="none" xmlns="http://www.w3.org/2000/svg">
  <circle cx="18" cy="18" r="18" fill="#ED4D47" />
  <path fill-rule="evenodd" clip-rule="evenodd" d="M18 13.8978C15.73 13.8978 13.899 15.7293 13.899 18C13.899 20.2707 15.73 22.1022 18 22.1022C20.27 22.1022 22.101 20.2707 22.101 18C22.101 15.7293 20.27 13.8978 18 13.8978ZM18 20.667C16.533 20.667 15.333 19.4709 15.333 18C15.333 16.5291 16.529 15.333 18 15.333C19.47 15.333 20.666 16.5291 20.666 18C20.666 19.4709 19.467 20.667 18 20.667ZM23.225 13.73C23.225 14.262 22.797 14.6868 22.269 14.6868C21.737 14.6868 21.312 14.2584 21.312 13.73C21.312 13.2016 21.741 12.7732 22.269 12.7732C22.797 12.7732 23.225 13.2016 23.225 13.73ZM25.942 14.7011C25.881 13.4194 25.588 12.2841 24.65 11.3487C23.714 10.4133 22.579 10.1205 21.298 10.0562C19.979 9.98126 16.021 9.98126 14.7 10.0562C13.422 10.1169 12.287 10.4097 11.348 11.3451C10.41 12.2805 10.12 13.4158 10.056 14.6975C9.981 16.0185 9.981 19.978 10.056 21.2989C10.117 22.5806 10.41 23.7159 11.348 24.6513C12.287 25.5867 13.419 25.8795 14.7 25.9438C16.021 26.0187 19.979 26.0187 21.298 25.9438C22.579 25.8831 23.714 25.5903 24.65 24.6513C25.585 23.7159 25.878 22.5806 25.942 21.2989C26.017 19.978 26.017 16.022 25.942 14.7011ZM24.236 22.7163C23.957 23.416 23.418 23.9551 22.715 24.2372C21.662 24.6549 19.165 24.5585 18 24.5585C16.835 24.5585 14.338 24.6513 13.287 24.2372C12.588 23.9587 12.049 23.4196 11.767 22.7163C11.348 21.6631 11.445 19.1639 11.445 18C11.445 16.8361 11.352 14.3334 11.767 13.2837C12.045 12.584 12.584 12.0449 13.287 11.7628C14.34 11.3451 16.837 11.4415 18 11.4415C19.163 11.4415 21.66 11.3487 22.715 11.7628C23.415 12.0413 23.954 12.5804 24.236 13.2837C24.653 14.3369 24.558 16.8361 24.558 18C24.558 19.1639 24.653 21.6666 24.236 22.7163Z" fill="white" />
</svg>
