<svg width="36" height="36" viewBox="0 0 36 36" fill="none" xmlns="http://www.w3.org/2000/svg">
  <circle cx="18" cy="18" r="18" fill="#ED4D47" />
  <path fill-rule="evenodd" clip-rule="evenodd" d="M17.0905 14.6592L17.0309 14.0076C16.9121 12.3187 17.9548 10.7761 19.6048 10.1777C20.212 9.96492 21.2415 9.93832 21.9147 10.1245C22.1786 10.2043 22.6803 10.4702 23.0366 10.7096L23.6834 11.1485L24.3961 10.9224C24.7921 10.8027 25.3201 10.6032 25.5576 10.4702C25.782 10.3506 25.98 10.284 25.98 10.324C25.98 10.55 25.4917 11.3213 25.0825 11.7468C24.5281 12.3453 24.6865 12.3985 25.8085 11.9995C26.4816 11.7734 26.4948 11.7734 26.3628 12.0261C26.2836 12.1591 25.8744 12.6245 25.4388 13.0501C24.6997 13.7815 24.6601 13.8613 24.6601 14.473C24.6601 15.4172 24.2113 17.3853 23.7625 18.4624C22.931 20.4838 21.1491 22.5715 19.3672 23.6221C16.8594 25.0982 13.5199 25.4705 10.7085 24.6062C9.77131 24.3136 8.16165 23.5689 8.16165 23.436C8.16165 23.396 8.64993 23.3428 9.24401 23.3296C10.4847 23.303 11.7254 22.9572 12.7813 22.3455L13.4942 21.92L12.6757 21.6407C11.5142 21.2417 10.4715 20.3242 10.2075 19.4598C10.1283 19.1805 10.1547 19.1672 10.8938 19.1672L11.6594 19.1539L11.0126 18.8481C10.2471 18.4624 9.54746 17.8108 9.20421 17.1459C8.95342 16.6672 8.63675 15.457 8.72915 15.364C8.75548 15.3241 9.03277 15.4038 9.34955 15.5102C10.2603 15.8427 10.3791 15.7629 9.85112 15.2044C8.8611 14.1937 8.55757 12.691 9.03277 11.2681L9.25721 10.6298L10.1283 11.4942C11.9102 13.2362 14.0089 14.2735 16.4112 14.5794L17.0905 14.6592Z" fill="white" />
</svg>
